<!DOCTYPE svg PUBLIC "-//W3C//DTD SVG 1.1//EN" "http://www.w3.org/Graphics/SVG/1.1/DTD/svg11.dtd">

<!-- Uploaded to: SVG Repo, www.svgrepo.com, Transformed by: SVG Repo Mixer Tools -->
<svg version="1.1" id="Uploaded to svgrepo.com" xmlns="http://www.w3.org/2000/svg" xmlns:xlink="http://www.w3.org/1999/xlink" width="30px" height="30px" viewBox="0 0 32 32" xml:space="preserve" fill="#000000" stroke="#000000" stroke-width="0.00032">

<g id="SVGRepo_bgCarrier" stroke-width="0"/>

<g id="SVGRepo_tracerCarrier" stroke-linecap="round" stroke-linejoin="round"/>

<g id="SVGRepo_iconCarrier"> <style type="text/css"> .bentblocks_een{fill:#0B1719;} </style> <path class="bentblocks_een" d="M4,4v24h24V4H4z M6,6h2.444L6,8.444V6z M6,11.272L11.272,6H14.1L6,14.101V11.272z M6,16.929 L16.929,6h2.828L6,19.757V16.929z M6,22.586L22.586,6h2.828L6,25.414V22.586z M26,26h-0.787L26,25.213V26z M26,22.385L22.385,26 h-2.828L26,19.556V22.385z M26,16.728L16.728,26h-2.828L26,13.899V16.728z M26,11.071L11.071,26H8.243L26,8.243V11.071z"/> </g>

</svg>