<!DOCTYPE svg PUBLIC "-//W3C//DTD SVG 1.1//EN" "http://www.w3.org/Graphics/SVG/1.1/DTD/svg11.dtd">

<!-- Uploaded to: SVG Repo, www.svgrepo.com, Transformed by: SVG Repo Mixer Tools -->
<svg fill="#000000" width="30px" height="30px" viewBox="0 0 32 32" xmlns="http://www.w3.org/2000/svg" xmlns:xlink="http://www.w3.org/1999/xlink" version="1.1" id="outline" enable-background="new 0 0 32 32" xml:space="preserve">

<g id="SVGRepo_bgCarrier" stroke-width="0"/>

<g id="SVGRepo_tracerCarrier" stroke-linecap="round" stroke-linejoin="round"/>

<g id="SVGRepo_iconCarrier"> <rect x="13" y="5" width="2" height="2"/> <rect x="5" y="13" width="2" height="2"/> <rect x="5" y="17" width="2" height="2"/> <rect x="25" y="13" width="2" height="2"/> <rect x="25" y="17" width="2" height="2"/> <rect x="17" y="5" width="2" height="2"/> <rect x="13" y="25" width="2" height="2"/> <rect x="17" y="25" width="2" height="2"/> <polygon points="7,21 5,21 5,27 11,27 11,25 7,25 "/> <polygon points="5,11 7,11 7,7 11,7 11,5 5,5 "/> <polygon points="25,25 21,25 21,27 27,27 27,21 25,21 "/> <polygon points="21,5 21,7 25,7 25,11 27,11 27,5 "/> </g>

</svg>